<svg id="svg" style="background-color: rgb(0, 0, 0);" class="path" title="background" version="1.1" xmlns="http://www.w3.org/2000/svg"><path fill="#0e0e0e" stroke="#0e0e0e" d="M -250 933 L -250 0 C -218 0, -122 -100, -90 -100 C -58 -100, 38 100, 70 100 C 102 100, 198 -100, 230 -100 C 262 -100, 358 100, 390 100 C 422 100, 518 -100, 550 -100 C 582 -100, 678 100, 710 100 C 742 100, 838 -100, 870 -100 C 902 -100, 998 100, 1030 100 C 1062 100, 1158 -100, 1190 -100 C 1222 -100, 1318 100, 1350 100 C 1382 100, 1478 -100, 1510 -100 L 1736 0 L 1736 933 Z"></path><path fill="#171717" stroke="#171717" d="M -250 933 L -240 27 C -208 27, -112 -73, -80 -73 C -48 -73, 48 127, 80 127 C 112 127, 208 -73, 240 -73 C 272 -73, 368 127, 400 127 C 432 127, 528 -73, 560 -73 C 592 -73, 688 127, 720 127 C 752 127, 848 -73, 880 -73 C 912 -73, 1008 127, 1040 127 C 1072 127, 1168 -73, 1200 -73 C 1232 -73, 1328 127, 1360 127 C 1392 127, 1488 -73, 1520 -73 L 1736 27 L 1736 933 Z"></path><path fill="#1f1f1f" stroke="#1f1f1f" d="M -250 933 L -230 54 C -198 54, -102 -46, -70 -46 C -38 -46, 58 154, 90 154 C 122 154, 218 -46, 250 -46 C 282 -46, 378 154, 410 154 C 442 154, 538 -46, 570 -46 C 602 -46, 698 154, 730 154 C 762 154, 858 -46, 890 -46 C 922 -46, 1018 154, 1050 154 C 1082 154, 1178 -46, 1210 -46 C 1242 -46, 1338 154, 1370 154 C 1402 154, 1498 -46, 1530 -46 L 1736 54 L 1736 933 Z"></path><path fill="#262626" stroke="#262626" d="M -250 933 L -220 81 C -188 81, -92 -19, -60 -19 C -28 -19, 68 181, 100 181 C 132 181, 228 -19, 260 -19 C 292 -19, 388 181, 420 181 C 452 181, 548 -19, 580 -19 C 612 -19, 708 181, 740 181 C 772 181, 868 -19, 900 -19 C 932 -19, 1028 181, 1060 181 C 1092 181, 1188 -19, 1220 -19 C 1252 -19, 1348 181, 1380 181 C 1412 181, 1508 -19, 1540 -19 L 1736 81 L 1736 933 Z"></path><path fill="#2f2f2f" stroke="#2f2f2f" d="M -250 933 L -210 109 C -178 109, -82 9, -50 9 C -18 9, 78 209, 110 209 C 142 209, 238 9, 270 9 C 302 9, 398 209, 430 209 C 462 209, 558 9, 590 9 C 622 9, 718 209, 750 209 C 782 209, 878 9, 910 9 C 942 9, 1038 209, 1070 209 C 1102 209, 1198 9, 1230 9 C 1262 9, 1358 209, 1390 209 C 1422 209, 1518 9, 1550 9 L 1736 109 L 1736 933 Z"></path><path fill="#373737" stroke="#373737" d="M -250 933 L -200 136 C -168 136, -72 36, -40 36 C -8 36, 88 236, 120 236 C 152 236, 248 36, 280 36 C 312 36, 408 236, 440 236 C 472 236, 568 36, 600 36 C 632 36, 728 236, 760 236 C 792 236, 888 36, 920 36 C 952 36, 1048 236, 1080 236 C 1112 236, 1208 36, 1240 36 C 1272 36, 1368 236, 1400 236 C 1432 236, 1528 36, 1560 36 L 1736 136 L 1736 933 Z"></path><path fill="#404040" stroke="#404040" d="M -250 933 L -190 163 C -158 163, -62 63, -30 63 C 2 63, 98 263, 130 263 C 162 263, 258 63, 290 63 C 322 63, 418 263, 450 263 C 482 263, 578 63, 610 63 C 642 63, 738 263, 770 263 C 802 263, 898 63, 930 63 C 962 63, 1058 263, 1090 263 C 1122 263, 1218 63, 1250 63 C 1282 63, 1378 263, 1410 263 C 1442 263, 1538 63, 1570 63 L 1736 163 L 1736 933 Z"></path><path fill="#484848" stroke="#484848" d="M -250 933 L -180 191 C -148 191, -52 91, -20 91 C 12 91, 108 291, 140 291 C 172 291, 268 91, 300 91 C 332 91, 428 291, 460 291 C 492 291, 588 91, 620 91 C 652 91, 748 291, 780 291 C 812 291, 908 91, 940 91 C 972 91, 1068 291, 1100 291 C 1132 291, 1228 91, 1260 91 C 1292 91, 1388 291, 1420 291 C 1452 291, 1548 91, 1580 91 L 1736 191 L 1736 933 Z"></path><path fill="#515151" stroke="#515151" d="M -250 933 L -170 218 C -138 218, -42 118, -10 118 C 22 118, 118 318, 150 318 C 182 318, 278 118, 310 118 C 342 118, 438 318, 470 318 C 502 318, 598 118, 630 118 C 662 118, 758 318, 790 318 C 822 318, 918 118, 950 118 C 982 118, 1078 318, 1110 318 C 1142 318, 1238 118, 1270 118 C 1302 118, 1398 318, 1430 318 C 1462 318, 1558 118, 1590 118 L 1736 218 L 1736 933 Z"></path><path fill="#5b5b5b" stroke="#5b5b5b" d="M -250 933 L -160 245 C -128 245, -32 145, 0 145 C 32 145, 128 345, 160 345 C 192 345, 288 145, 320 145 C 352 145, 448 345, 480 345 C 512 345, 608 145, 640 145 C 672 145, 768 345, 800 345 C 832 345, 928 145, 960 145 C 992 145, 1088 345, 1120 345 C 1152 345, 1248 145, 1280 145 C 1312 145, 1408 345, 1440 345 C 1472 345, 1568 145, 1600 145 L 1736 245 L 1736 933 Z"></path><path fill="#646464" stroke="#646464" d="M -250 933 L -150 273 C -118 273, -22 173, 10 173 C 42 173, 138 373, 170 373 C 202 373, 298 173, 330 173 C 362 173, 458 373, 490 373 C 522 373, 618 173, 650 173 C 682 173, 778 373, 810 373 C 842 373, 938 173, 970 173 C 1002 173, 1098 373, 1130 373 C 1162 373, 1258 173, 1290 173 C 1322 173, 1418 373, 1450 373 C 1482 373, 1578 173, 1610 173 L 1736 273 L 1736 933 Z"></path><path fill="#6d6d6d" stroke="#6d6d6d" d="M -250 933 L -140 300 C -108 300, -12 200, 20 200 C 52 200, 148 400, 180 400 C 212 400, 308 200, 340 200 C 372 200, 468 400, 500 400 C 532 400, 628 200, 660 200 C 692 200, 788 400, 820 400 C 852 400, 948 200, 980 200 C 1012 200, 1108 400, 1140 400 C 1172 400, 1268 200, 1300 200 C 1332 200, 1428 400, 1460 400 C 1492 400, 1588 200, 1620 200 L 1736 300 L 1736 933 Z"></path><path fill="#777777" stroke="#777777" d="M -250 933 L -130 327 C -98 327, -2 227, 30 227 C 62 227, 158 427, 190 427 C 222 427, 318 227, 350 227 C 382 227, 478 427, 510 427 C 542 427, 638 227, 670 227 C 702 227, 798 427, 830 427 C 862 427, 958 227, 990 227 C 1022 227, 1118 427, 1150 427 C 1182 427, 1278 227, 1310 227 C 1342 227, 1438 427, 1470 427 C 1502 427, 1598 227, 1630 227 L 1736 327 L 1736 933 Z"></path><path fill="#818181" stroke="#818181" d="M -250 933 L -120 355 C -88 355, 8 255, 40 255 C 72 255, 168 455, 200 455 C 232 455, 328 255, 360 255 C 392 255, 488 455, 520 455 C 552 455, 648 255, 680 255 C 712 255, 808 455, 840 455 C 872 455, 968 255, 1000 255 C 1032 255, 1128 455, 1160 455 C 1192 455, 1288 255, 1320 255 C 1352 255, 1448 455, 1480 455 C 1512 455, 1608 255, 1640 255 L 1736 355 L 1736 933 Z"></path><path fill="#8b8b8b" stroke="#8b8b8b" d="M -250 933 L -110 382 C -78 382, 18 282, 50 282 C 82 282, 178 482, 210 482 C 242 482, 338 282, 370 282 C 402 282, 498 482, 530 482 C 562 482, 658 282, 690 282 C 722 282, 818 482, 850 482 C 882 482, 978 282, 1010 282 C 1042 282, 1138 482, 1170 482 C 1202 482, 1298 282, 1330 282 C 1362 282, 1458 482, 1490 482 L 1736 382 L 1736 933 Z"></path><path fill="#959595" stroke="#959595" d="M -250 933 L -100 409 C -68 409, 28 309, 60 309 C 92 309, 188 509, 220 509 C 252 509, 348 309, 380 309 C 412 309, 508 509, 540 509 C 572 509, 668 309, 700 309 C 732 309, 828 509, 860 509 C 892 509, 988 309, 1020 309 C 1052 309, 1148 509, 1180 509 C 1212 509, 1308 309, 1340 309 C 1372 309, 1468 509, 1500 509 L 1736 409 L 1736 933 Z"></path><path fill="#9f9f9f" stroke="#9f9f9f" d="M -250 933 L -90 437 C -58 437, 38 337, 70 337 C 102 337, 198 537, 230 537 C 262 537, 358 337, 390 337 C 422 337, 518 537, 550 537 C 582 537, 678 337, 710 337 C 742 337, 838 537, 870 537 C 902 537, 998 337, 1030 337 C 1062 337, 1158 537, 1190 537 C 1222 537, 1318 337, 1350 337 C 1382 337, 1478 537, 1510 537 L 1736 437 L 1736 933 Z"></path><path fill="#a9a9a9" stroke="#a9a9a9" d="M -250 933 L -80 464 C -48 464, 48 364, 80 364 C 112 364, 208 564, 240 564 C 272 564, 368 364, 400 364 C 432 364, 528 564, 560 564 C 592 564, 688 364, 720 364 C 752 364, 848 564, 880 564 C 912 564, 1008 364, 1040 364 C 1072 364, 1168 564, 1200 564 C 1232 564, 1328 364, 1360 364 C 1392 364, 1488 564, 1520 564 L 1736 464 L 1736 933 Z"></path><path fill="#b3b3b3" stroke="#b3b3b3" d="M -250 933 L -70 491 C -38 491, 58 391, 90 391 C 122 391, 218 591, 250 591 C 282 591, 378 391, 410 391 C 442 391, 538 591, 570 591 C 602 591, 698 391, 730 391 C 762 391, 858 591, 890 591 C 922 591, 1018 391, 1050 391 C 1082 391, 1178 591, 1210 591 C 1242 591, 1338 391, 1370 391 C 1402 391, 1498 591, 1530 591 L 1736 491 L 1736 933 Z"></path><path fill="#bebebe" stroke="#bebebe" d="M -250 933 L -60 519 C -28 519, 68 419, 100 419 C 132 419, 228 619, 260 619 C 292 619, 388 419, 420 419 C 452 419, 548 619, 580 619 C 612 619, 708 419, 740 419 C 772 419, 868 619, 900 619 C 932 619, 1028 419, 1060 419 C 1092 419, 1188 619, 1220 619 C 1252 619, 1348 419, 1380 419 C 1412 419, 1508 619, 1540 619 L 1736 519 L 1736 933 Z"></path><path fill="#c8c8c8" stroke="#c8c8c8" d="M -250 933 L -50 546 C -18 546, 78 446, 110 446 C 142 446, 238 646, 270 646 C 302 646, 398 446, 430 446 C 462 446, 558 646, 590 646 C 622 646, 718 446, 750 446 C 782 446, 878 646, 910 646 C 942 646, 1038 446, 1070 446 C 1102 446, 1198 646, 1230 646 C 1262 646, 1358 446, 1390 446 C 1422 446, 1518 646, 1550 646 L 1736 546 L 1736 933 Z"></path><path fill="#d3d3d3" stroke="#d3d3d3" d="M -250 933 L -40 573 C -8 573, 88 473, 120 473 C 152 473, 248 673, 280 673 C 312 673, 408 473, 440 473 C 472 473, 568 673, 600 673 C 632 673, 728 473, 760 473 C 792 473, 888 673, 920 673 C 952 673, 1048 473, 1080 473 C 1112 473, 1208 673, 1240 673 C 1272 673, 1368 473, 1400 473 C 1432 473, 1528 673, 1560 673 L 1736 573 L 1736 933 Z"></path><path fill="#dedede" stroke="#dedede" d="M -250 933 L -30 601 C 2 601, 98 501, 130 501 C 162 501, 258 701, 290 701 C 322 701, 418 501, 450 501 C 482 501, 578 701, 610 701 C 642 701, 738 501, 770 501 C 802 501, 898 701, 930 701 C 962 701, 1058 501, 1090 501 C 1122 501, 1218 701, 1250 701 C 1282 701, 1378 501, 1410 501 C 1442 501, 1538 701, 1570 701 L 1736 601 L 1736 933 Z"></path><path fill="#e9e9e9" stroke="#e9e9e9" d="M -250 933 L -20 628 C 12 628, 108 528, 140 528 C 172 528, 268 728, 300 728 C 332 728, 428 528, 460 528 C 492 528, 588 728, 620 728 C 652 728, 748 528, 780 528 C 812 528, 908 728, 940 728 C 972 728, 1068 528, 1100 528 C 1132 528, 1228 728, 1260 728 C 1292 728, 1388 528, 1420 528 C 1452 528, 1548 728, 1580 728 L 1736 628 L 1736 933 Z"></path><path fill="#f4f4f4" stroke="#f4f4f4" d="M -250 933 L -10 655 C 22 655, 118 555, 150 555 C 182 555, 278 755, 310 755 C 342 755, 438 555, 470 555 C 502 555, 598 755, 630 755 C 662 755, 758 555, 790 555 C 822 555, 918 755, 950 755 C 982 755, 1078 555, 1110 555 C 1142 555, 1238 755, 1270 755 C 1302 755, 1398 555, 1430 555 C 1462 555, 1558 755, 1590 755 L 1736 655 L 1736 933 Z"></path><path fill="#ffffff" stroke="#ffffff" d="M -250 933 L 0 683 C 32 683, 128 583, 160 583 C 192 583, 288 783, 320 783 C 352 783, 448 583, 480 583 C 512 583, 608 783, 640 783 C 672 783, 768 583, 800 583 C 832 583, 928 783, 960 783 C 992 783, 1088 583, 1120 583 C 1152 583, 1248 783, 1280 783 C 1312 783, 1408 583, 1440 583 C 1472 583, 1568 783, 1600 783 L 1736 683 L 1736 933 Z"></path></svg>